<?xml version="1.0" encoding="UTF-8" standalone="no"?>
<!DOCTYPE svg PUBLIC "-//W3C//DTD SVG 1.1//EN"
 "http://www.w3.org/Graphics/SVG/1.1/DTD/svg11.dtd">
<!-- Generated by graphviz version 2.31.20130211.0545 (20130211.0545)
 -->
<!-- Title: G Pages: 1 -->
<svg width="444pt" height="350pt"
 viewBox="0.00 0.00 444.00 350.00" xmlns="http://www.w3.org/2000/svg" xmlns:xlink="http://www.w3.org/1999/xlink">
<g id="graph0" class="graph" transform="scale(1 1) rotate(0) translate(4 346)">
<title>G</title>
<polygon fill="white" stroke="white" points="-4,5 -4,-346 441,-346 441,5 -4,5"/>
<g id="clust1" class="cluster"><title>cluster_BestBuy</title>
<path fill="none" stroke="gray" d="M160,-8C160,-8 416,-8 416,-8 422,-8 428,-14 428,-20 428,-20 428,-322 428,-322 428,-328 422,-334 416,-334 416,-334 160,-334 160,-334 154,-334 148,-328 148,-322 148,-322 148,-20 148,-20 148,-14 154,-8 160,-8"/>
<text text-anchor="middle" x="288" y="-321.2" font-family="Times,serif" font-size="11.00" fill="gray">BestBuy</text>
</g>
<g id="clust2" class="cluster"><title>cluster_BestBuy\Service</title>
<path fill="none" stroke="gray" d="M168,-16C168,-16 408,-16 408,-16 414,-16 420,-22 420,-28 420,-28 420,-294 420,-294 420,-300 414,-306 408,-306 408,-306 168,-306 168,-306 162,-306 156,-300 156,-294 156,-294 156,-28 156,-28 156,-22 162,-16 168,-16"/>
<text text-anchor="middle" x="288" y="-293.2" font-family="Times,serif" font-size="11.00" fill="gray">Service</text>
</g>
<g id="clust3" class="cluster"><title>cluster_BestBuy\Service\Remix</title>
<path fill="none" stroke="gray" d="M176,-70C176,-70 400,-70 400,-70 406,-70 412,-76 412,-82 412,-82 412,-266 412,-266 412,-272 406,-278 400,-278 400,-278 176,-278 176,-278 170,-278 164,-272 164,-266 164,-266 164,-82 164,-82 164,-76 170,-70 176,-70"/>
<text text-anchor="middle" x="288" y="-265.2" font-family="Times,serif" font-size="11.00" fill="gray">Remix</text>
</g>
<g id="clust4" class="cluster"><title>cluster_BestBuy\Service\Remix\Type</title>
<path fill="none" stroke="gray" d="M324,-178C324,-178 392,-178 392,-178 398,-178 404,-184 404,-190 404,-190 404,-238 404,-238 404,-244 398,-250 392,-250 392,-250 324,-250 324,-250 318,-250 312,-244 312,-238 312,-238 312,-190 312,-190 312,-184 318,-178 324,-178"/>
<text text-anchor="middle" x="358" y="-237.2" font-family="Times,serif" font-size="11.00" fill="gray">Type</text>
</g>
<!-- \\BestBuy\\Service\\Remix\\Type\\Exception -->
<g id="node1" class="node"><title>\\BestBuy\\Service\\Remix\\Type\\Exception</title>
<g id="a_node1"><a xlink:href="Remix.Type.Exception.html" xlink:title="Exception" target="_parent">
<polygon fill="none" stroke="black" points="396,-222 320,-222 320,-186 396,-186 396,-222"/>
<text text-anchor="middle" x="358" y="-201.2" font-family="Courier,monospace" font-size="11.00">Exception</text>
</a>
</g>
</g>
<!-- \\BestBuy\\Service\\Remix\\Exception -->
<g id="node2" class="node"><title>\\BestBuy\\Service\\Remix\\Exception</title>
<g id="a_node2"><a xlink:href="Remix.Exception.html" xlink:title="Exception" target="_parent">
<polygon fill="none" stroke="black" points="248,-222 172,-222 172,-186 248,-186 248,-222"/>
<text text-anchor="middle" x="210" y="-201.2" font-family="Courier,monospace" font-size="11.00">Exception</text>
</a>
</g>
</g>
<!-- \\BestBuy\\Service\\Remix\\Type\\Exception&#45;&gt;\\BestBuy\\Service\\Remix\\Exception -->
<g id="edge2" class="edge"><title>\\BestBuy\\Service\\Remix\\Type\\Exception&#45;&gt;\\BestBuy\\Service\\Remix\\Exception</title>
<path fill="none" stroke="black" d="M319.78,-204C301.075,-204 278.205,-204 258.271,-204"/>
<polygon fill="none" stroke="black" points="258.152,-200.5 248.152,-204 258.152,-207.5 258.152,-200.5"/>
</g>
<!-- \\Exception -->
<g id="node6" class="node"><title>\\Exception</title>
<ellipse fill="none" stroke="black" cx="50" cy="-204" rx="50.0912" ry="18"/>
<text text-anchor="middle" x="50" y="-200.3" font-family="Times,serif" font-size="14.00" fill="gray">\Exception</text>
</g>
<!-- \\BestBuy\\Service\\Remix\\Exception&#45;&gt;\\Exception -->
<g id="edge1" class="edge"><title>\\BestBuy\\Service\\Remix\\Exception&#45;&gt;\\Exception</title>
<path fill="none" stroke="black" d="M171.956,-204C153.619,-204 131.034,-204 110.364,-204"/>
<polygon fill="none" stroke="black" points="110.081,-200.5 100.081,-204 110.081,-207.5 110.081,-200.5"/>
</g>
<!-- \\BestBuy\\Service\\Remix\\Response -->
<g id="node3" class="node"><title>\\BestBuy\\Service\\Remix\\Response</title>
<g id="a_node3"><a xlink:href="Remix.Response.html" xlink:title="Response" target="_parent">
<polygon fill="none" stroke="black" points="392.5,-168 323.5,-168 323.5,-132 392.5,-132 392.5,-168"/>
<text text-anchor="middle" x="358" y="-147.2" font-family="Courier,monospace" font-size="11.00">Response</text>
</a>
</g>
</g>
<!-- \\BestBuy\\Service\\Remix\\Type -->
<g id="node4" class="node"><title>\\BestBuy\\Service\\Remix\\Type</title>
<g id="a_node4"><a xlink:href="Remix.Type.html" xlink:title="Type" target="_parent">
<polygon fill="none" stroke="black" points="385,-114 331,-114 331,-78 385,-78 385,-114"/>
<text text-anchor="middle" x="358" y="-93.2" font-family="Courier,monospace" font-size="11.00">Type</text>
</a>
</g>
</g>
<!-- \\BestBuy\\Service\\Remix -->
<g id="node5" class="node"><title>\\BestBuy\\Service\\Remix</title>
<g id="a_node5"><a xlink:href="Remix.html" xlink:title="Remix" target="_parent">
<polygon fill="none" stroke="black" points="385,-60 331,-60 331,-24 385,-24 385,-60"/>
<text text-anchor="middle" x="358" y="-39.2" font-family="Courier,monospace" font-size="11.00">Remix</text>
</a>
</g>
</g>
</g>
</svg>
